<?xml version="1.0" encoding="utf-8"?>
<!-- Generator: Adobe Illustrator 18.0.0, SVG Export Plug-In . SVG Version: 6.00 Build 0)  -->
<!DOCTYPE svg PUBLIC "-//W3C//DTD SVG 1.1//EN" "http://www.w3.org/Graphics/SVG/1.1/DTD/svg11.dtd">
<svg version="1.1" id="Layer_1" xmlns="http://www.w3.org/2000/svg" xmlns:xlink="http://www.w3.org/1999/xlink" x="0px" y="0px"
	 viewBox="0 0 1024 1024" enable-background="new 0 0 1024 1024" xml:space="preserve">
<g>
	<defs>
		<path id="SVGID_1_" d="M874.8,1024.7H152.1C69.2,1024.7,1.4,957,1.4,874.2V150.5C1.4,67.7,69.2,0,152.1,0h722.7
			c82.9,0,150.7,67.7,150.7,150.5v723.7C1025.4,957,957.6,1024.7,874.8,1024.7z"/>
	</defs>
	<clipPath id="SVGID_2_">
		<use xlink:href="#SVGID_1_"  overflow="visible"/>
	</clipPath>
	<g clip-path="url(#SVGID_2_)">
		
			<image overflow="visible" enable-background="new    " width="1920" height="1200" xlink:href="AD78BE32.jpg"  transform="matrix(0.5326 0 0 0.8533 1.4 0)">
		</image>
	</g>
</g>
<path fill="#FCFDFE" d="M98.3,252.1c-0.1,116.2-0.1,116.2,117.4,116.2c8.8,0,17.5,0.1,26.3,0c66.8-0.9,85.3-21.3,78.8-86.3
	c-1.1-11.6,2.7-26.6-16.5-26.1c-19.1,0.5-16.9,16.1-15.2,27c7,45-16.2,54.6-54.6,51.4c-24.4-2.1-49.1-0.2-73.7-0.7
	c-14.8-0.3-29.5-3-29.6-21.9c-0.2-40.3-7.5-83.3,4.3-120c7.6-23.8,47.7-5.6,72.7-10.4c6.6-1.3,14.4-2.4,19.1-6.6
	c4.4-3.9,6.5-11.5,7.1-17.7c0.2-2.1-7.2-5.8-11.6-7.2c-84.3-26.8-124.3,2.9-124.4,91.9C98.3,245.1,98.3,248.6,98.3,252.1z"/>
<path fill="#FCFDFE" d="M98.3,508.1c-0.1,114.1,0,114.1,114.2,114.1c10.5,0,21.1,0.1,31.6,0c65.1-1.1,81.3-18.6,76.5-83.2
	c-0.8-10.9,5.8-26.9-13.3-28.9c-23.3-2.4-17.8,15.9-18.7,28.7c-1.4,21.7,7,48.9-29.8,48.8c-33.4-0.1-66.7,0.1-100.1-0.1
	c-19.1-0.1-29.1-9-28.3-29.2c0.6-15.8,1.6-31.8-0.3-47.4c-6.3-52.8,2-90.5,69.4-76c7.9,1.7,17.8-0.6,25.2-4.3
	c5-2.5,9.4-10.5,10.2-16.5c1.2-8.9-7.1-9.1-14-10.9c-91.7-23.1-122.5,0.4-122.6,94.2C98.3,501,98.3,504.5,98.3,508.1z"/>
<path fill="#FCFDFE" d="M98.4,768.6c7.3,33.1-21.6,85.1,36.6,103.6c47.2,15,96.6,12.9,144.4-0.4c20.4-5.7,32.9-20.4,36.1-43.7
	c3.1-22.8,18-56.9-9.1-61.5c-34.4-5.8-14.7,31.2-16.6,47.9c-3.8,32.9-27.2,31.9-46,27.8c-37.6-8.1-91.5,29.1-110.5-24
	c-12.8-35.7-11.3-83.4,1.6-119.3c10.9-30.2,53.9-8.2,82-13.9c3.4-0.7,8,0.6,10.3-1.2c5-4,10.7-8.8,12.7-14.5
	c2.8-7.8-3.8-12.8-10.3-16c-61.9-31.6-131,9.8-131.3,78.6C98.4,742.7,98.4,753.2,98.4,768.6z"/>
<path fill="#FCFDFE" d="M173.5,247c-7.6,5.5-22.3,11.1-16.5,21.2c9.1,15.9,23.5,30,38.5,40.8c13.3,9.6,21.3-6.7,29.4-14.2
	c19.1-17.8,37.4-36.4,55.1-55.6c7.3-7.8,22.7-15.2,9.6-29.4c-15.4-16.7-22.9,2.4-34,8C230,230.6,221.9,289.5,173.5,247z"/>
<path fill="#FCFDFE" d="M212.1,578.2c19.4-25,39.3-49.2,57.3-74.8c8.6-12.2,37.5-19.9,18.9-39.8c-19.3-20.7-27.8,8.4-40.5,16.3
	c-18.2,11.3-25.6,42.3-51.8,36c-15.3-3.7-33.8-25.9-38.1,2.7C154.7,540.4,183,552.6,212.1,578.2z"/>
<path fill="#04C1FE" d="M354.1,255.4c-4.6-87.2,2.7-95.3,86.9-95.3c131.3,0,262.5,0,393.8,0c84.1,0,91.5,8.2,87,95.3
	c-9.4,0-18.9,0-28.3,0c6.7-53.4-17.4-66.5-69-64.8c-124.3,4.1-248.9,4.1-373.1,0c-51.6-1.7-75.6,11.4-68.9,64.8
	C373,255.4,363.5,255.4,354.1,255.4z"/>
<path fill="#03A5FE" d="M354.1,509.3c-4.5-87.2,2.8-95.3,86.9-95.3c131.3,0,262.5,0,393.8,0c84.1,0,91.5,8.2,87,95.3
	c-9.4,0-18.9,0-28.3,0c6.7-53.4-17.3-66.5-68.9-64.8c-124.3,4.1-249,4.1-373.3,0c-51.6-1.7-75.6,11.5-68.9,64.8
	C373,509.3,363.5,509.3,354.1,509.3z"/>
<path fill="#0389FE" d="M354.1,763.3c-4.6-87.2,2.7-95.3,86.9-95.3c131.3,0,262.5,0,393.8,0c84.1,0,91.5,8.2,87,95.3
	c-9.4,0-18.9,0-28.3,0c6.7-53.3-17.1-66.6-68.8-64.9c-124.4,4.1-249.1,4.1-373.4,0c-51.7-1.7-75.5,11.6-68.8,64.9
	C373,763.3,363.5,763.3,354.1,763.3z"/>
<path fill="#01B1FE" d="M354.1,255.4c9.4,0,18.9,0,28.3,0c-7.1,53.7,17.2,66.4,68.8,64.8c124.4-4.1,249.1-4.1,373.5,0
	c51.5,1.7,75.9-11,68.8-64.7c9.4,0,18.9,0,28.3,0c3.5,84.6-6.3,95.1-88.4,95.2c-129.5,0-259,0-388.6,0
	C351.8,350.5,349.5,348,354.1,255.4z"/>
<path fill="#0295FE" d="M893.4,509.3c9.4,0,18.9,0,28.3,0c3.6,84.7-6.2,95.2-88.3,95.2c-129.6,0-259.1,0-388.7,0
	c-93,0-95.3-2.4-90.7-95.2c9.4,0,18.9,0,28.3,0c-7.1,53.7,17.2,66.4,68.7,64.7c124.4-4.1,249.1-4.1,373.5,0
	C876.2,575.8,900.5,563,893.4,509.3z"/>
<path fill="#0178FE" d="M893.4,763.3c9.4,0,18.9,0,28.3,0c3.6,84.8-6,95.1-88.2,95.2c-129.6,0-259.2,0-388.8,0
	c-93.1,0-95.3-2.3-90.6-95.2c9.4,0,18.9,0,28.3,0c-7.1,53.7,17.1,66.4,68.7,64.7c124.4-4.1,249.2-4.1,373.6,0
	C876.3,829.7,900.6,817,893.4,763.3z"/>
<path fill="#0EBBFE" d="M98.3,252.1c0-3.5,0-7,0-10.5c0.1-89,40.1-118.6,124.4-91.9c4.4,1.4,11.7,5.1,11.6,7.2
	c-0.6,6.2-2.7,13.8-7.1,17.7c-4.7,4.1-12.4,5.3-19.1,6.6c-25,4.9-65.1-13.4-72.7,10.4c-11.7,36.7-4.5,79.7-4.3,120
	c0.1,18.9,14.9,21.7,29.6,21.9c24.6,0.4,49.3-1.4,73.7,0.7c38.5,3.2,61.7-6.4,54.6-51.4c-1.7-10.9-3.9-26.5,15.2-27
	c19.2-0.5,15.4,14.5,16.5,26.1c6.5,65.1-12.1,85.4-78.8,86.3c-8.8,0.1-17.5,0-26.3,0C98.3,368.3,98.3,368.3,98.3,252.1z"/>
<path fill="#0EA0FE" d="M98.3,508.1c0-3.5,0-7,0-10.5c0.1-93.8,30.9-117.4,122.6-94.2c6.9,1.7,15.2,2,14,10.9
	c-0.8,6-5.2,13.9-10.2,16.5c-7.4,3.7-17.3,6-25.2,4.3c-67.4-14.5-75.7,23.3-69.4,76c1.9,15.6,0.9,31.6,0.3,47.4
	c-0.8,20.1,9.2,29.1,28.3,29.2c33.4,0.2,66.7,0,100.1,0.1c36.8,0.1,28.4-27.2,29.8-48.8c0.8-12.8-4.7-31.1,18.7-28.7
	c19.1,2,12.5,18,13.3,28.9c4.7,64.6-11.5,82-76.5,83.2c-10.5,0.2-21.1,0-31.6,0C98.3,622.2,98.2,622.2,98.3,508.1z"/>
<path fill="#0A83FE" d="M98.4,768.6c0-15.4,0-26,0-36.5c0.3-68.8,69.4-110.2,131.3-78.6c6.4,3.3,13.1,8.2,10.3,16
	c-2.1,5.7-7.7,10.4-12.7,14.5c-2.3,1.8-6.9,0.5-10.3,1.2c-28.1,5.7-71.2-16.3-82,13.9c-12.9,35.9-14.4,83.6-1.6,119.3
	c19,53.2,72.9,15.9,110.5,24c18.7,4.1,42.1,5.1,46-27.8c1.9-16.7-17.8-53.7,16.6-47.9c27.2,4.6,12.2,38.7,9.1,61.5
	c-3.2,23.2-15.8,38-36.1,43.7c-47.8,13.3-97.1,15.4-144.4,0.4C76.9,853.7,105.7,801.8,98.4,768.6z"/>
<path fill="#1AC0FE" d="M173.5,247c48.5,42.6,56.5-16.4,82.1-29.3c11.1-5.6,18.6-24.7,34-8c13.1,14.2-2.4,21.6-9.6,29.4
	c-17.7,19.1-36,37.8-55.1,55.6c-8.1,7.5-16,23.8-29.4,14.2c-15.1-10.8-29.4-24.9-38.5-40.8C151.1,258,165.9,252.5,173.5,247z"/>
<path fill="#1AA6FE" d="M212.1,578.2c-29.2-25.7-57.4-37.9-54.1-59.6c4.3-28.6,22.8-6.3,38.1-2.7c26.1,6.3,33.6-24.7,51.8-36
	c12.7-7.9,21.3-37,40.5-16.3c18.6,20-10.4,27.7-18.9,39.8C251.4,529,231.5,553.2,212.1,578.2z"/>
<path fill="#93D5FE" d="M636,275.5c-61.5,0-123,0.3-184.5-0.2c-14.9-0.1-35.3,3.7-34.5-20.6c0.7-23.9,21.1-19.3,35.8-19.3
	c124.8-0.3,249.6-0.3,374.4-0.1c13.6,0,30.7-2.3,31.9,18c1.5,24.5-17.9,21.9-33.3,22C762.5,275.7,699.3,275.5,636,275.5z"/>
<path fill="#93D4FE" d="M638,529.5c-59.7,0-119.5,0.6-179.2-0.4c-15.7-0.2-39.9,8.3-41.6-18.4c-1.7-28,22.8-21.2,38.7-21.3
	c121.2-0.6,242.5-0.6,363.7,0c15.8,0.1,40.4-6.9,39,21c-1.4,26.8-25.6,18.4-41.3,18.6C757.5,530.1,697.8,529.5,638,529.5z"/>
<path fill="#93D4FE" d="M635.1,783.5c-59.7,0-119.5,0.5-179.2-0.3c-15.8-0.2-39.7,6.8-38.8-21.3c0.8-23.6,21.8-18.4,36.5-18.5
	c123-0.4,246-0.4,369,0c14.7,0,35.7-4.9,36.2,18.8c0.5,28-23.3,20.8-39.1,21C758.1,783.9,696.6,783.5,635.1,783.5z"/>
<path fill="#1AA6FE" d="M212.1,828.2c-29.2-25.7-57.4-37.9-54.1-59.6c4.3-28.6,22.8-6.3,38.1-2.7c26.1,6.3,33.6-24.7,51.8-36
	c12.7-7.9,21.3-37,40.5-16.3c18.6,20-10.4,27.7-18.9,39.8C251.4,779,231.5,803.2,212.1,828.2z"/>
</svg>
